<?xml version="1.0" encoding="UTF-8" standalone="no"?>
<!DOCTYPE svg PUBLIC "-//W3C//DTD SVG 1.1//EN" "http://www.w3.org/Graphics/SVG/1.1/DTD/svg11.dtd">
<!-- 由 Microsoft Visio, SVG Export 生成 HKUST.svg svg2 -->
<svg xmlns="http://www.w3.org/2000/svg" xmlns:xlink="http://www.w3.org/1999/xlink" xmlns:ev="http://www.w3.org/2001/xml-events"
		xmlns:v="http://schemas.microsoft.com/visio/2003/SVGExtensions/" width="4.49333in" height="1.18111in"
		viewBox="0 0 323.52 85.04" xml:space="preserve" color-interpolation-filters="sRGB" class="st2">
	<v:documentProperties v:langID="2052" v:viewMarkup="false"/>

	<style type="text/css">
	<![CDATA[
		.st1 {fill:#ffffff;stroke:none;stroke-linecap:butt;stroke-width:0.1}
		.st2 {fill:none;fill-rule:evenodd;font-size:12px;overflow:visible;stroke-linecap:square;stroke-miterlimit:3}
	]]>
	</style>

	<g v:mID="0" v:index="1" v:groupContext="foregroundPage">
		<title>svg2</title>
		<v:pageProperties v:drawingScale="1" v:pageScale="1" v:drawingUnits="19" v:shadowOffsetX="9" v:shadowOffsetY="-9"/>
		<g id="shape2-1" v:mID="2" v:groupContext="shape" transform="translate(12.1141,121.434) scale(1,-1)">
			<title>path14</title>
			<path d="M30.12 37.18 L20.27 53.6 C20.27 53.6 19.96 53.98 19.96 54.6 L19.96 54.96 L19.96 55.8 L19.96 85.04 L16.24 85.04
						 L16.24 54.56 L16.24 53.62 C16.55 53.31 22.75 42.74 22.75 42.74 L7.37 42.74 C7.37 42.74 13.57 53.31 13.88
						 53.62 L13.88 54.56 L13.88 85.04 L10.16 85.04 L10.16 55.8 L10.16 54.96 L10.16 54.6 C10.16 53.98 9.85 53.6
						 9.85 53.6 L0 37.18 L30.12 37.18 Z" class="st1"/>
		</g>
		<g id="shape3-3" v:mID="3" v:groupContext="shape" transform="translate(13.5094,85.0405) scale(1,-1)">
			<title>path16</title>
			<path d="M25.67 69.95 C25.67 69.95 27.53 77.63 20.91 82.66 C20.91 82.66 18.26 85.04 13.23 85.04 C8.73 85.04 6.09 82.66
						 6.09 82.66 C0 78.42 1.59 69.95 1.59 69.95 L25.67 69.95 Z" class="st1"/>
		</g>
		<g id="shape4-5" v:mID="4" v:groupContext="shape" transform="translate(15.3859,100.921) scale(1,-1)">
			<title>path18</title>
			<path d="M0.46 83.72 L23.1 83.72 C23.27 84.15 23.43 84.59 23.55 85.04 L0 85.04 C0.13 84.59 0.28 84.15 0.46 83.72 Z"
					class="st1"/>
		</g>
		<g id="shape5-7" v:mID="5" v:groupContext="shape" transform="translate(16.2004,103.039) scale(1,-1)">
			<title>path20</title>
			<path d="M21.93 85.04 L0 85.04 C0.23 84.58 0.48 84.14 0.76 83.72 L21.17 83.72 C21.45 84.14 21.7 84.58 21.93 85.04 Z"
					class="st1"/>
		</g>
		<g id="shape6-9" v:mID="6" v:groupContext="shape" transform="translate(17.5219,105.157) scale(1,-1)">
			<title>path22</title>
			<path d="M0.92 83.98 L18.36 83.98 C18.69 84.32 19 84.67 19.28 85.04 L0 85.04 C0.29 84.67 0.59 84.32 0.92 83.98 Z"
					class="st1"/>
		</g>
		<g id="shape7-11" v:mID="7" v:groupContext="shape" transform="translate(19.2891,107.009) scale(1,-1)">
			<title>path24</title>
			<path d="M1.04 84.25 L14.71 84.25 C15.07 84.49 15.42 84.76 15.75 85.04 L0 85.04 C0.33 84.76 0.68 84.49 1.04 84.25 Z"
					class="st1"/>
		</g>
		<g id="shape8-13" v:mID="8" v:groupContext="shape" transform="translate(22.216,108.862) scale(1,-1)">
			<title>path26</title>
			<path d="M0 85.04 C1.51 84.36 3.19 83.98 4.95 83.98 C6.71 83.98 8.38 84.36 9.89 85.04 L0 85.04 Z" class="st1"/>
		</g>
		<g id="shape9-15" v:mID="9" v:groupContext="shape" transform="translate(1.51879E-13,110.511) scale(1,-1)">
			<title>path28</title>
			<path d="M50.65 85.04 L32.12 85.04 C32.12 85.04 30.4 85.04 29.03 84.1 C27.97 83.38 27.21 81.7 27.18 81.61 L27.17 81.61
						 C27.14 81.7 26.38 83.38 25.32 84.1 C23.95 85.04 22.24 85.04 22.24 85.04 L3.71 85.04 L0 79.11 L16.97 79.11
						 C16.97 79.11 17.47 79.11 17.78 79.06 C18.28 78.98 19.16 78.71 20.07 78.05 C21.33 77.14 21.68 76.68 21.99
						 76.37 C22.15 76.21 22.54 75.68 22.54 75.68 L26.7 75.68 L27.18 75.68 L28.61 75.68 L31.81 75.68 C31.81 75.68
						 32.21 76.21 32.36 76.37 C32.67 76.68 33.02 77.14 34.28 78.05 C35.19 78.71 36.07 78.98 36.57 79.06 C36.88
						 79.11 37.38 79.11 37.38 79.11 L54.35 79.11 L50.65 85.04 Z" class="st1"/>
		</g>
		<g id="shape10-17" v:mID="10" v:groupContext="shape" transform="translate(1.85938,118.24) scale(1,-1)">
			<title>path30</title>
			<path d="M0 85.04 L0 57.24 C0 57.24 0 56.96 0 56.86 C0 56.55 0.02 56.28 0.05 56.03 C0.35 53.05 1.28 50.85 3.01 47.96
						 C5.74 43.42 10.67 40.25 10.67 40.25 L13 43.95 C13 43.95 9.84 45.64 7.32 49.49 C6.81 50.27 6.3 50.99 5.96
						 51.7 C5.63 52.38 5.38 52.94 5.19 53.52 C5.05 53.95 4.93 54.34 4.84 54.69 C4.71 55.21 4.66 55.6 4.63 56.09
						 C4.62 56.26 4.6 56.96 4.6 56.96 L4.6 57.09 L4.6 85.04 L0 85.04 Z" class="st1"/>
		</g>
		<g id="shape11-19" v:mID="11" v:groupContext="shape" transform="translate(8.92109,118.24) scale(1,-1)">
			<title>path32</title>
			<path d="M0 85.04 L0 56.96 C0 56.96 0.01 56.85 0.01 56.73 C0.02 56.59 0.04 56.39 0.06 56.23 C0.07 56.13 0.09 56 0.11
						 55.93 C0.2 55.5 0.29 55.1 0.49 54.53 C0.81 53.58 1.36 52.44 2.18 51.13 C4.26 47.77 7.26 46.23 7.26 46.23
						 L9.59 49.85 C9.59 49.85 8.82 50.27 7.88 51.17 C7.26 51.77 6.52 52.55 5.89 53.49 C5.28 54.44 4.9 55.41 4.68
						 56.14 C4.5 56.74 4.47 57.23 4.46 57.55 C4.45 57.81 4.46 57.95 4.46 57.95 L4.46 85.04 L0 85.04 Z"
					class="st1"/>
		</g>
		<g id="shape12-21" v:mID="12" v:groupContext="shape" transform="translate(39.4957,118.24) scale(1,-1)">
			<title>path34</title>
			<path d="M13 85.04 L13 57.24 C13 57.24 13 56.96 13 56.86 C13 56.55 12.98 56.28 12.95 56.03 C12.64 53.05 11.72 50.85 9.99
						 47.96 C7.26 43.42 2.33 40.25 2.33 40.25 L0 43.95 C0 43.95 3.16 45.64 5.68 49.49 C6.19 50.27 6.69 50.99 7.04
						 51.7 C7.36 52.38 7.61 52.94 7.81 53.52 C7.95 53.95 8.07 54.34 8.16 54.69 C8.28 55.21 8.34 55.6 8.37 56.09
						 C8.38 56.26 8.4 56.96 8.4 56.96 L8.4 57.09 L8.4 85.04 L13 85.04 Z" class="st1"/>
		</g>
		<g id="shape13-23" v:mID="13" v:groupContext="shape" transform="translate(35.8449,118.24) scale(1,-1)">
			<title>path36</title>
			<path d="M9.59 85.04 L9.59 56.96 C9.59 56.96 9.58 56.85 9.57 56.73 C9.56 56.59 9.55 56.39 9.53 56.23 C9.51 56.13 9.49
						 56 9.48 55.93 C9.39 55.5 9.29 55.1 9.1 54.53 C8.78 53.58 8.22 52.44 7.41 51.13 C5.33 47.77 2.32 46.23 2.32
						 46.23 L0 49.85 C0 49.85 0.77 50.27 1.71 51.17 C2.32 51.77 3.06 52.55 3.69 53.49 C4.31 54.44 4.69 55.41 4.91
						 56.14 C5.09 56.74 5.12 57.23 5.13 57.55 C5.13 57.81 5.13 57.95 5.13 57.95 L5.13 85.04 L9.59 85.04 Z"
					class="st1"/>
		</g>
		<g id="shape14-25" v:mID="14" v:groupContext="shape" transform="translate(65.0809,86.6077) scale(1,-1)">
			<title>path38</title>
			<path d="M9.58 79.51 L9.58 76.05 L14.19 76.05 C12.29 76.8 10.75 77.95 9.58 79.51 ZM4.21 69.92 L13.41 69.92 L13.41 71.57
						 L4.21 71.57 L4.21 69.92 ZM13.41 74.48 L4.21 74.48 L4.21 73.06 L13.41 73.06 L13.41 74.48 ZM3.56 76.05 L7.82
						 76.05 L7.82 79.49 C6.74 77.94 5.32 76.8 3.56 76.05 ZM15.15 75.62 L15.15 67.51 L13.41 67.51 L13.41 68.37
						 L4.22 68.37 L4.22 67.51 L2.48 67.51 L2.48 75.53 C2.17 75.39 1.65 75.2 0.9 74.95 L0 76.61 C2.27 77.16 4.24
						 78.14 5.92 79.54 L0.15 79.54 L0.15 81.1 L7.83 81.1 L7.83 82.61 C5.02 82.54 3.01 82.5 1.79 82.5 L1.18 84.22
						 C1.89 84.19 2.77 84.18 3.81 84.18 C8.78 84.18 12.54 84.47 15.09 85.04 L15.9 83.51 C14.2 83.16 12.1 82.88
						 9.58 82.67 L9.58 81.1 L17.47 81.1 L17.47 79.54 L11.45 79.54 C12.87 78.17 14.93 77.22 17.62 76.68 L16.79
						 74.98 C16.54 75.1 16.27 75.2 15.97 75.28 C15.67 75.37 15.4 75.48 15.15 75.62 Z" class="st1"/>
		</g>
		<g id="shape15-27" v:mID="15" v:groupContext="shape" transform="translate(89.0871,86.6929) scale(1,-1)">
			<title>path40</title>
			<path d="M8.73 81.53 L8.73 79.69 L12.13 79.69 L12.13 81.53 L8.73 81.53 ZM9.14 78.12 C8.86 77.49 8.5 76.93 8.04 76.44
						 L12.8 76.44 C12.39 76.9 12.01 77.46 11.66 78.12 L9.14 78.12 ZM7.72 74.97 L7.72 73.13 L12.02 73.13 L12.02
						 74.97 L7.72 74.97 ZM4.54 83.1 L7.02 83.1 L7.02 85.04 L8.73 85.04 L8.73 83.1 L12.14 83.1 L12.14 85.04 L13.82
						 85.04 L13.82 83.1 L16.91 83.1 L16.91 81.62 L13.82 81.62 L13.82 79.69 L17.19 79.69 L17.19 78.12 L13.62 78.12
						 C14.12 77.12 15.37 76.11 17.39 75.12 L16.59 73.45 C15.44 74.14 14.5 74.82 13.75 75.49 L13.75 71.66 L7.73
						 71.66 L7.73 70.46 C7.73 70.03 7.95 69.81 8.39 69.81 L13.94 69.81 C14.46 69.81 14.77 70 14.87 70.39 C14.97
						 70.79 15.06 71.48 15.15 72.46 L16.95 71.81 C16.75 70.08 16.48 69.04 16.14 68.69 C15.82 68.35 15.18 68.18
						 14.22 68.18 L8.16 68.18 C7.36 68.18 6.8 68.33 6.48 68.63 C6.17 68.94 6.01 69.52 6.01 70.37 L6.01 74.56 C5.7
						 74.29 5.13 73.9 4.29 73.38 L3.23 74.95 C5.3 75.88 6.61 76.94 7.15 78.11 L4.16 78.11 L4.16 79.68 L7.02 79.68
						 L7.02 81.55 L4.54 81.55 L4.54 82.55 L3.4 81.13 C2.38 82.07 1.45 82.8 0.61 83.32 L1.85 84.7 C2.91 84.03 3.8
						 83.41 4.54 82.85 L4.54 83.1 ZM2.71 76.42 C1.7 77.28 0.83 77.96 0.09 78.44 L1.21 79.85 C2.1 79.37 3.02 78.77
						 3.98 78.03 L2.71 76.42 ZM3.87 73.4 C3.36 71.38 2.57 69.52 1.5 67.83 L0 69.36 C1.1 70.92 1.84 72.58 2.24
						 74.35 L3.87 73.4 Z" class="st1"/>
		</g>
		<g id="shape16-29" v:mID="16" v:groupContext="shape" transform="translate(112.923,86.5226) scale(1,-1)">
			<title>path42</title>
			<path d="M12.32 79.96 C10.93 81.07 9.81 81.88 8.95 82.4 L10.07 83.64 C10.88 83.19 12.02 82.43 13.49 81.36 L12.32 79.96
						 ZM11.98 75.41 C10.7 76.49 9.56 77.31 8.58 77.9 L9.68 79.15 C10.62 78.67 11.77 77.9 13.14 76.85 L11.98 75.41
						 ZM7.91 71.62 L7.91 73.36 L14.17 74.29 L14.17 85.04 L15.91 85.04 L15.91 74.5 L17.59 74.78 L17.59 73.08 L15.91
						 72.8 L15.91 67.43 L14.17 67.43 L14.17 72.57 L7.91 71.62 ZM3.59 82.33 C2.93 82.21 1.96 82.1 0.69 82.01 L0.3
						 83.58 C3.09 83.72 5.49 84.17 7.49 84.93 L8.13 83.4 C7.23 83.08 6.29 82.83 5.31 82.63 L5.31 79.99 L8.15 79.99
						 L8.15 78.39 L5.31 78.39 L5.31 78.22 C6.7 76.92 7.76 75.89 8.47 75.12 L7.42 73.51 C7.05 74.03 6.67 74.5 6.3
						 74.93 C5.97 75.32 5.64 75.73 5.31 76.18 L5.31 67.51 L3.59 67.43 L3.59 75.12 C3.12 73.92 2.27 72.53 1.05
						 70.93 L0 72.61 C1.57 74.39 2.75 76.32 3.53 78.39 L0.11 78.39 L0.11 79.99 L3.59 79.99 L3.59 82.33 Z"
					class="st1"/>
		</g>
		<g id="shape17-31" v:mID="17" v:groupContext="shape" transform="translate(136.872,86.5226) scale(1,-1)">
			<title>path44</title>
			<path d="M6.98 79.51 L4.77 79.51 L4.77 76.2 C5.77 76.52 6.5 76.8 6.96 77.02 L6.96 75.19 C6.57 74.98 5.85 74.69 4.77 74.33
						 L4.77 69.75 C4.77 68.87 4.65 68.28 4.4 68 C4.14 67.7 3.54 67.55 2.62 67.55 L1.14 67.55 L0.71 69.44 L2.34
						 69.38 C2.75 69.38 2.95 69.59 2.95 70 L2.95 73.81 C1.89 73.53 1.06 73.32 0.45 73.17 L0 75.19 C1.08 75.33
						 2.07 75.51 2.95 75.75 L2.95 79.51 L0.19 79.51 L0.19 81.21 L2.95 81.21 L2.95 85.04 L4.79 85.04 L4.79 81.21
						 L7 81.21 L7 82.4 L11.02 82.4 L11.02 85.04 L12.87 85.04 L12.87 82.4 L17.28 82.4 L17.28 80.7 L12.87 80.7 L12.87
						 78.2 L16.64 78.2 L16.64 76.65 C16.48 75.98 16.07 75.1 15.41 74.01 C14.76 72.93 14.08 72.08 13.37 71.45 C14.62
						 70.43 16.02 69.7 17.59 69.27 L16.64 67.51 C15 68.04 13.45 68.97 12.01 70.29 C10.04 68.79 8.16 67.85 6.36
						 67.47 L5.34 69.17 C7.13 69.57 8.92 70.37 10.72 71.58 C9.76 72.56 8.82 73.88 7.9 75.56 L9.45 76.18 C10.31
						 74.66 11.17 73.47 12.03 72.61 C13.3 73.62 14.2 74.91 14.73 76.48 L7.32 76.48 L7.32 78.2 L11.02 78.2 L11.02
						 80.7 L7 80.7 L6.98 79.51 Z" class="st1"/>
		</g>
		<g id="shape18-33" v:mID="18" v:groupContext="shape" transform="translate(160.766,86.5507) scale(1,-1)">
			<title>path46</title>
			<path d="M11.21 78.39 C11.5 76.87 12.17 75.27 13.23 73.6 C14.29 71.93 15.75 70.49 17.6 69.27 L16.16 67.55 C12.8 69.75
						 10.5 73.37 9.25 78.39 L8.95 78.39 C8.12 73.89 5.61 70.26 1.42 67.51 L0 69.29 C1.77 70.29 3.29 71.62 4.56
						 73.27 C5.82 74.91 6.6 76.61 6.9 78.37 L0.45 78.37 L0.45 80.35 L7.21 80.35 C7.38 81.48 7.46 83.05 7.46 85.04
						 L9.42 85.04 C9.42 82.9 9.37 81.33 9.27 80.35 L17.19 80.35 L17.19 78.37 L11.21 78.39 Z" class="st1"/>
		</g>
		<g id="shape19-35" v:mID="19" v:groupContext="shape" transform="translate(184.716,86.5226) scale(1,-1)">
			<title>path48</title>
			<path d="M9.21 78.57 C8.64 78.18 7.91 77.83 7.03 77.53 L6.22 78.78 C7.08 78.97 7.73 79.19 8.17 79.45 C7.92 79.64 7.5
						 79.94 6.91 80.35 L7.88 81.17 C8.12 81.01 8.34 80.87 8.54 80.76 C8.78 80.6 9.04 80.41 9.32 80.18 C9.7 80.42
						 10.13 80.8 10.61 81.34 L11.6 80.5 C11.14 80.04 10.72 79.66 10.33 79.38 C10.7 79.06 11.05 78.74 11.4 78.39
						 L10.2 77.47 C9.63 78.21 9.3 78.57 9.21 78.57 ZM9.1 82.4 C8.48 82.01 7.75 81.63 6.91 81.26 L5.96 82.52 C7.01
						 82.8 7.69 83.06 8.02 83.28 C7.71 83.53 7.28 83.82 6.75 84.16 L7.76 85.04 C8.24 84.73 8.73 84.39 9.23 84.01
						 C9.77 84.37 10.15 84.71 10.37 85.02 L11.31 84.18 C11.03 83.81 10.66 83.47 10.2 83.17 C10.45 82.95 10.78
						 82.62 11.19 82.18 L10.05 81.34 C9.56 82.05 9.24 82.4 9.1 82.4 ZM15.57 75.68 L2.07 75.68 L2.07 72.93 L0.41
						 72.93 L0.41 77.15 L1.34 77.15 L1.14 84.33 C2.76 84.38 4.13 84.56 5.25 84.87 L6.07 83.49 C5.38 83.25 4.27
						 83.08 2.75 82.98 L2.8 82.03 L5.72 82.03 L5.72 80.76 L2.86 80.76 L2.88 79.69 L5.72 79.69 L5.72 78.4 L2.91
						 78.4 L2.95 77.15 L14.66 77.15 L14.68 78.4 L12.06 78.4 L12.06 79.69 L14.73 79.69 L14.77 80.76 L12.06 80.76
						 L12.06 82.03 L14.81 82.03 L14.82 83.06 L11.85 83.06 L11.85 84.54 L16.47 84.54 L16.26 77.15 L17.26 77.15
						 L17.26 72.93 L15.57 72.93 L15.57 75.68 ZM13.92 74.87 L13.92 73.51 C12.83 72.92 11.47 72.38 9.87 71.88 L17.62
						 71.88 L17.62 70.37 L9.87 70.37 L9.87 69.6 C9.87 68.27 9.3 67.6 8.17 67.6 L5.42 67.6 L4.99 69.12 L7.55 69.04
						 C7.92 69.04 8.11 69.23 8.11 69.6 L8.11 70.37 L0 70.37 L0 71.88 L8.11 71.88 L8.11 72.69 C8.97 72.84 10.06
						 73.1 11.38 73.49 L3.51 73.49 L3.51 74.87 L13.92 74.87 Z" class="st1"/>
		</g>
		<g id="shape20-37" v:mID="20" v:groupContext="shape" transform="translate(66.7906,155.111) scale(1,-1)">
			<title>path50</title>
			<path d="M4.97 71.3 L3.26 71.3 L3.26 83.47 L0 83.47 L0 85.04 L8.23 85.04 L8.23 83.47 L4.97 83.47 L4.97 71.3 Z"
					class="st1"/>
		</g>
		<g id="shape21-39" v:mID="21" v:groupContext="shape" transform="translate(76.5543,155.111) scale(1,-1)">
			<title>path52</title>
			<path d="M0 85.04 L7.38 85.04 L7.38 83.47 L1.71 83.47 L1.71 79.63 L7.21 79.63 L7.21 78.06 L1.71 78.06 L1.71 72.87 L7.38
						 72.87 L7.38 71.3 L0 71.3 L0 85.04 Z" class="st1"/>
		</g>
		<g id="shape22-41" v:mID="22" v:groupContext="shape" transform="translate(85.4629,154.819) scale(1,-1)">
			<title>path54</title>
			<path d="M10.77 82.13 C9.78 83 8.43 83.47 7.14 83.47 C4.06 83.47 1.71 80.91 1.71 77.86 C1.71 74.86 4.04 72.29 7.1 72.29
						 C8.45 72.29 9.75 72.8 10.77 73.71 L10.77 71.69 C9.71 71.07 8.36 70.72 7.16 70.72 C3.24 70.72 0 73.84 0 77.81
						 C0 81.87 3.26 85.04 7.3 85.04 C8.51 85.04 9.73 84.75 10.77 84.11 L10.77 82.13 Z" class="st1"/>
		</g>
		<g id="shape23-43" v:mID="23" v:groupContext="shape" transform="translate(98.3055,155.111) scale(1,-1)">
			<title>path56</title>
			<path d="M8.25 79.5 L8.25 85.04 L9.96 85.04 L9.96 71.3 L8.25 71.3 L8.25 77.9 L1.71 77.9 L1.71 71.3 L0 71.3 L0 85.04 L1.71
						 85.04 L1.71 79.5 L8.25 79.5 Z" class="st1"/>
		</g>
		<g id="shape24-45" v:mID="24" v:groupContext="shape" transform="translate(110.766,154.454) scale(1,-1)">
			<title>path58</title>
			<path d="M0 85.04 L10.31 74.24 L10.31 84.38 L12.02 84.38 L12.02 70.08 L1.71 80.89 L1.71 70.65 L0 70.65 L0 85.04 Z"
					class="st1"/>
		</g>
		<g id="shape25-47" v:mID="25" v:groupContext="shape" transform="translate(124.446,154.819) scale(1,-1)">
			<title>path60</title>
			<path d="M12.68 77.88 C12.68 80.91 10.42 83.44 7.19 83.44 C3.97 83.44 1.71 80.91 1.71 77.88 C1.71 74.75 4.23 72.33 7.19
						 72.33 C10.16 72.33 12.68 74.75 12.68 77.88 ZM14.39 77.88 C14.39 73.8 11.17 70.72 7.19 70.72 C3.22 70.72
						 0 73.8 0 77.88 C0 81.82 3.26 85.04 7.19 85.04 C11.13 85.04 14.39 81.82 14.39 77.88 Z" class="st1"/>
		</g>
		<g id="shape26-49" v:mID="26" v:groupContext="shape" transform="translate(140.677,155.111) scale(1,-1)">
			<title>path62</title>
			<path d="M1.71 72.87 L5.88 72.87 L5.88 71.3 L0 71.3 L0 85.04 L1.71 85.04 L1.71 72.87 Z" class="st1"/>
		</g>
		<g id="shape27-51" v:mID="27" v:groupContext="shape" transform="translate(146.907,154.819) scale(1,-1)">
			<title>path64</title>
			<path d="M12.68 77.88 C12.68 80.91 10.42 83.44 7.19 83.44 C3.97 83.44 1.71 80.91 1.71 77.88 C1.71 74.75 4.23 72.33 7.19
						 72.33 C10.16 72.33 12.68 74.75 12.68 77.88 ZM14.39 77.88 C14.39 73.8 11.16 70.72 7.19 70.72 C3.22 70.72
						 0 73.8 0 77.88 C0 81.82 3.26 85.04 7.19 85.04 C11.13 85.04 14.39 81.82 14.39 77.88 Z" class="st1"/>
		</g>
		<g id="shape28-53" v:mID="28" v:groupContext="shape" transform="translate(162.208,154.819) scale(1,-1)">
			<title>path66</title>
			<path d="M13.44 77.94 L13.44 77.39 C13.44 73.62 10.78 70.72 6.94 70.72 C3.1 70.72 0 74.04 0 77.84 C0 81.8 3.17 85.04
						 7.12 85.04 C9.25 85.04 11.37 84.07 12.72 82.38 L11.51 81.23 C10.53 82.58 8.87 83.47 7.19 83.47 C4.12 83.47
						 1.71 80.98 1.71 77.9 C1.71 75.02 4.08 72.29 7.05 72.29 C9.18 72.29 11.48 74.13 11.55 76.37 L8 76.37 L8 77.94
						 L13.44 77.94 Z" class="st1"/>
		</g>
		<g id="shape29-55" v:mID="29" v:groupContext="shape" transform="translate(176.107,155.111) scale(1,-1)">
			<title>path68</title>
			<path d="M0 85.04 L1.97 85.04 L5.34 79.17 L8.71 85.04 L10.68 85.04 L6.19 77.28 L6.19 71.3 L4.48 71.3 L4.48 77.28 L0 85.04
						 Z" class="st1"/>
		</g>
		<g id="shape30-57" v:mID="30" v:groupContext="shape" transform="translate(65.6145,111.402) scale(1,-1)">
			<title>path70</title>
			<path d="M4.97 71.3 L3.26 71.3 L3.26 83.47 L0 83.47 L0 85.04 L8.23 85.04 L8.23 83.47 L4.97 83.47 L4.97 71.3 Z"
					class="st1"/>
		</g>
		<g id="shape31-59" v:mID="31" v:groupContext="shape" transform="translate(75.2344,111.402) scale(1,-1)">
			<title>path72</title>
			<path d="M8.25 79.5 L8.25 85.04 L9.96 85.04 L9.96 71.3 L8.25 71.3 L8.25 77.9 L1.71 77.9 L1.71 71.3 L0 71.3 L0 85.04 L1.71
						 85.04 L1.71 79.5 L8.25 79.5 Z" class="st1"/>
		</g>
		<g id="shape32-61" v:mID="32" v:groupContext="shape" transform="translate(87.8582,111.402) scale(1,-1)">
			<title>path74</title>
			<path d="M0 85.04 L7.38 85.04 L7.38 83.47 L1.71 83.47 L1.71 79.63 L7.21 79.63 L7.21 78.06 L1.71 78.06 L1.71 72.87 L7.38
						 72.87 L7.38 71.3 L0 71.3 L0 85.04 Z" class="st1"/>
		</g>
		<g id="shape33-63" v:mID="33" v:groupContext="shape" transform="translate(102.832,111.402) scale(1,-1)">
			<title>path76</title>
			<path d="M8.25 79.5 L8.25 85.04 L9.96 85.04 L9.96 71.3 L8.25 71.3 L8.25 77.9 L1.71 77.9 L1.71 71.3 L0 71.3 L0 85.04 L1.71
						 85.04 L1.71 79.5 L8.25 79.5 Z" class="st1"/>
		</g>
		<g id="shape34-65" v:mID="34" v:groupContext="shape" transform="translate(114.489,111.111) scale(1,-1)">
			<title>path78</title>
			<path d="M12.68 77.88 C12.68 80.91 10.42 83.44 7.2 83.44 C3.97 83.44 1.71 80.91 1.71 77.88 C1.71 74.75 4.23 72.33 7.2
						 72.33 C10.16 72.33 12.68 74.75 12.68 77.88 ZM14.39 77.88 C14.39 73.8 11.17 70.72 7.2 70.72 C3.22 70.72 0
						 73.8 0 77.88 C0 81.82 3.26 85.04 7.2 85.04 C11.13 85.04 14.39 81.82 14.39 77.88 Z" class="st1"/>
		</g>
		<g id="shape35-67" v:mID="35" v:groupContext="shape" transform="translate(130.557,110.746) scale(1,-1)">
			<title>path80</title>
			<path d="M0 85.04 L10.31 74.24 L10.31 84.38 L12.02 84.38 L12.02 70.08 L1.71 80.89 L1.71 70.65 L0 70.65 L0 85.04 Z"
					class="st1"/>
		</g>
		<g id="shape36-69" v:mID="36" v:groupContext="shape" transform="translate(144.273,111.111) scale(1,-1)">
			<title>path82</title>
			<path d="M13.44 77.94 L13.44 77.39 C13.44 73.62 10.78 70.72 6.94 70.72 C3.1 70.72 0 74.04 0 77.84 C0 81.8 3.17 85.04
						 7.12 85.04 C9.25 85.04 11.37 84.07 12.72 82.38 L11.51 81.23 C10.53 82.58 8.87 83.47 7.19 83.47 C4.12 83.47
						 1.71 80.98 1.71 77.9 C1.71 75.02 4.08 72.29 7.05 72.29 C9.18 72.29 11.48 74.13 11.55 76.37 L8 76.37 L8 77.94
						 L13.44 77.94 Z" class="st1"/>
		</g>
		<g id="shape37-71" v:mID="37" v:groupContext="shape" transform="translate(165.04,111.402) scale(1,-1)">
			<title>path84</title>
			<path d="M7.54 85.04 L9.78 85.04 L3.61 78.87 L9.89 71.3 L7.58 71.3 L2.4 77.7 L1.71 77.04 L1.71 71.3 L0 71.3 L0 85.04
						 L1.71 85.04 L1.71 79.08 L7.54 85.04 Z" class="st1"/>
		</g>
		<g id="shape38-73" v:mID="38" v:groupContext="shape" transform="translate(175.187,111.111) scale(1,-1)">
			<title>path86</title>
			<path d="M12.68 77.88 C12.68 80.91 10.42 83.44 7.19 83.44 C3.97 83.44 1.71 80.91 1.71 77.88 C1.71 74.75 4.22 72.33 7.19
						 72.33 C10.16 72.33 12.68 74.75 12.68 77.88 ZM14.39 77.88 C14.39 73.8 11.16 70.72 7.19 70.72 C3.22 70.72
						 0 73.8 0 77.88 C0 81.82 3.26 85.04 7.19 85.04 C11.13 85.04 14.39 81.82 14.39 77.88 Z" class="st1"/>
		</g>
		<g id="shape39-75" v:mID="39" v:groupContext="shape" transform="translate(191.253,110.746) scale(1,-1)">
			<title>path88</title>
			<path d="M0 85.04 L10.31 74.24 L10.31 84.38 L12.02 84.38 L12.02 70.08 L1.71 80.89 L1.71 70.65 L0 70.65 L0 85.04 Z"
					class="st1"/>
		</g>
		<g id="shape40-77" v:mID="40" v:groupContext="shape" transform="translate(204.97,111.111) scale(1,-1)">
			<title>path90</title>
			<path d="M13.44 77.94 L13.44 77.39 C13.44 73.62 10.78 70.72 6.94 70.72 C3.1 70.72 0 74.04 0 77.84 C0 81.8 3.17 85.04
						 7.12 85.04 C9.25 85.04 11.37 84.07 12.72 82.38 L11.51 81.23 C10.53 82.58 8.87 83.47 7.19 83.47 C4.12 83.47
						 1.71 80.98 1.71 77.9 C1.71 75.02 4.08 72.29 7.05 72.29 C9.18 72.29 11.48 74.13 11.55 76.37 L8 76.37 L8 77.94
						 L13.44 77.94 Z" class="st1"/>
		</g>
		<g id="shape41-79" v:mID="41" v:groupContext="shape" transform="translate(198.749,154.814) scale(1,-1)">
			<title>path92</title>
			<path d="M13.47 77.92 L13.47 77.37 C13.47 73.6 10.8 70.69 6.95 70.69 C3.1 70.69 0 74.02 0 77.83 C0 81.79 3.17 85.04 7.14
						 85.04 C9.27 85.04 11.39 84.07 12.74 82.38 L11.53 81.23 C10.55 82.58 8.89 83.47 7.21 83.47 C4.12 83.47 1.72
						 80.97 1.72 77.89 C1.72 75 4.09 72.26 7.06 72.26 C9.2 72.26 11.5 74.11 11.57 76.35 L8.01 76.35 L8.01 77.92
						 L13.47 77.92 Z" class="st1"/>
		</g>
		<g id="shape42-81" v:mID="42" v:groupContext="shape" transform="translate(213.847,155.106) scale(1,-1)">
			<title>path94</title>
			<path d="M1.72 85.04 L1.72 76.92 C1.72 74.67 2.39 72.59 5.04 72.59 C7.68 72.59 8.36 74.67 8.36 76.92 L8.36 85.04 L10.07
						 85.04 L10.07 76.33 C10.07 73.3 8.19 70.99 5.04 70.99 C1.88 70.99 0 73.3 0 76.33 L0 85.04 L1.72 85.04 Z"
					class="st1"/>
		</g>
		<g id="shape43-83" v:mID="43" v:groupContext="shape" transform="translate(225.003,154.522) scale(1,-1)">
			<title>path96</title>
			<path d="M6.57 81.28 L4.12 75.71 L9.02 75.71 L6.57 81.28 ZM3.41 74.14 L1.84 70.69 L0 70.69 L6.57 85.04 L13.14 70.69 L11.3
						 70.69 L9.73 74.14 L3.41 74.14 Z" class="st1"/>
		</g>
		<g id="shape44-85" v:mID="44" v:groupContext="shape" transform="translate(239.297,154.449) scale(1,-1)">
			<title>path98</title>
			<path d="M0 85.04 L10.33 74.22 L10.33 84.38 L12.05 84.38 L12.05 70.06 L1.72 80.88 L1.72 70.62 L0 70.62 L0 85.04 Z"
					class="st1"/>
		</g>
		<g id="shape45-87" v:mID="45" v:groupContext="shape" transform="translate(253.026,154.814) scale(1,-1)">
			<title>path100</title>
			<path d="M13.47 77.92 L13.47 77.37 C13.47 73.6 10.81 70.69 6.95 70.69 C3.1 70.69 0 74.02 0 77.83 C0 81.79 3.18 85.04
						 7.14 85.04 C9.27 85.04 11.39 84.07 12.74 82.38 L11.54 81.23 C10.55 82.58 8.89 83.47 7.21 83.47 C4.13 83.47
						 1.72 80.97 1.72 77.89 C1.72 75 4.09 72.26 7.06 72.26 C9.2 72.26 11.5 74.11 11.57 76.35 L8.01 76.35 L8.01
						 77.92 L13.47 77.92 Z" class="st1"/>
		</g>
		<g id="shape46-89" v:mID="46" v:groupContext="shape" transform="translate(267.212,155.106) scale(1,-1)">
			<title>path102</title>
			<path d="M9.76 72.85 L9.76 71.28 L0 71.28 L6.97 83.47 L0.99 83.47 L0.99 85.04 L9.76 85.04 L2.79 72.85 L9.76 72.85 Z"
					class="st1"/>
		</g>
		<g id="shape47-91" v:mID="47" v:groupContext="shape" transform="translate(278.458,155.106) scale(1,-1)">
			<title>path104</title>
			<path d="M8.27 79.49 L8.27 85.04 L9.98 85.04 L9.98 71.28 L8.27 71.28 L8.27 77.89 L1.71 77.89 L1.71 71.28 L0 71.28 L0
						 85.04 L1.71 85.04 L1.71 79.49 L8.27 79.49 Z" class="st1"/>
		</g>
		<g id="shape48-93" v:mID="48" v:groupContext="shape" transform="translate(290.124,154.814) scale(1,-1)">
			<title>path106</title>
			<path d="M12.7 77.87 C12.7 80.9 10.44 83.43 7.21 83.43 C3.98 83.43 1.71 80.9 1.71 77.87 C1.71 74.73 4.23 72.3 7.21 72.3
						 C10.18 72.3 12.7 74.73 12.7 77.87 ZM14.42 77.87 C14.42 73.78 11.19 70.69 7.21 70.69 C3.23 70.69 0 73.78
						 0 77.87 C0 81.81 3.27 85.04 7.21 85.04 C11.15 85.04 14.42 81.81 14.42 77.87 Z" class="st1"/>
		</g>
		<g id="shape49-95" v:mID="49" v:groupContext="shape" transform="translate(306.135,155.106) scale(1,-1)">
			<title>path108</title>
			<path d="M1.72 85.04 L1.72 76.92 C1.72 74.67 2.39 72.59 5.04 72.59 C7.68 72.59 8.36 74.67 8.36 76.92 L8.36 85.04 L10.07
						 85.04 L10.07 76.33 C10.07 73.3 8.19 70.99 5.04 70.99 C1.88 70.99 0 73.3 0 76.33 L0 85.04 L1.72 85.04 Z"
					class="st1"/>
		</g>
		<g id="shape50-97" v:mID="50" v:groupContext="shape" transform="translate(210.965,86.3987) scale(1,-1)">
			<title>path110</title>
			<path d="M4.66 85.04 C3.83 83.47 3.24 82.2 2.89 81.21 C2.33 79.54 2.05 77.8 2.05 76 C2.05 73.1 2.91 70.1 4.64 67 L3.25
						 67 C2.31 68.26 1.53 69.7 0.9 71.3 C0.3 72.9 0 74.49 0 76.06 C0 78.2 0.54 80.31 1.63 82.39 C2.21 83.49 2.76
						 84.38 3.27 85.04 L4.66 85.04 Z" class="st1"/>
		</g>
		<g id="shape51-99" v:mID="51" v:groupContext="shape" transform="translate(219.903,86.1948) scale(1,-1)">
			<title>path112</title>
			<path d="M14.91 71.01 L14.91 72.3 L11.41 72.3 L11.41 71.01 L14.91 71.01 ZM14.91 73.45 L14.91 74.71 L11.41 74.71 L11.41
						 73.45 L14.91 73.45 ZM9.81 71.01 L9.81 72.3 L6.32 72.3 L6.32 71.01 L9.81 71.01 ZM9.81 73.45 L9.81 74.71 L6.32
						 74.71 L6.32 73.45 L9.81 73.45 ZM12.29 69.75 L4.7 69.75 L4.7 75.93 L9.81 75.93 L9.81 76.82 L3.73 76.82 L3.73
						 78.1 L17.58 78.1 L17.58 76.82 L11.41 76.82 L11.41 75.93 L16.51 75.93 L16.51 69.75 L12.31 69.75 C14.68 69.15
						 16.37 68.73 17.38 68.51 L16.5 67.12 C15.76 67.34 14.98 67.58 14.15 67.83 C13.2 68.1 12.3 68.37 11.46 68.64
						 L12.29 69.75 ZM8.36 69.75 L9.4 68.58 C8.07 67.94 6.21 67.45 3.83 67.1 L3.04 68.58 C5.31 68.75 7.09 69.14
						 8.36 69.75 ZM3.14 82.34 L3.14 78.88 C3.14 73.58 2.52 69.71 1.3 67.25 L0 68.68 C0.98 70.92 1.47 74.43 1.47
						 79.2 L1.47 83.75 L9.26 83.75 C9.18 83.87 9.01 84.27 8.73 84.83 L10.52 85.04 C10.72 84.73 10.94 84.26 11.2
						 83.75 L17.72 83.75 L17.72 82.34 L3.14 82.34 Z" class="st1"/>
		</g>
		<g id="shape52-101" v:mID="52" v:groupContext="shape" transform="translate(243.786,86.4308) scale(1,-1)">
			<title>path114</title>
			<path d="M15.41 85.04 L17.29 85.04 L17.29 67.34 L15.41 67.34 L15.41 85.04 ZM13.23 74.85 C13.03 76.52 12.49 78.31 11.6
						 80.23 L13.23 80.87 C14.07 78.9 14.7 77.08 15.11 75.42 L13.23 74.85 ZM9.43 84.65 L11.24 84.65 L11.24 67.94
						 L9.43 67.94 L9.43 84.65 ZM7.29 74.7 C6.89 77.08 6.4 78.89 5.83 80.12 L7.5 80.75 C8.18 78.94 8.71 77.08 9.1
						 75.19 L7.29 74.7 ZM1.86 67.69 L0.24 69.2 C1.38 70.01 2.27 71.04 2.89 72.3 C3.51 73.56 3.82 75.51 3.82 78.14
						 L3.82 84.81 L5.68 84.81 L5.68 76.85 C5.68 72.9 4.4 69.85 1.86 67.69 ZM2.89 80.45 C2.76 78.56 2.39 76.64
						 1.78 74.68 L0 75.4 C0.69 76.95 1.08 78.77 1.16 80.85 L2.89 80.45 Z" class="st1"/>
		</g>
		<g id="shape53-103" v:mID="53" v:groupContext="shape" transform="translate(266.192,86.3987) scale(1,-1)">
			<title>path116</title>
			<path d="M4.66 75.98 C4.66 73.85 4.12 71.74 3.02 69.65 C2.49 68.62 1.94 67.74 1.39 67 L0 67 C0.83 68.55 1.41 69.82 1.77
						 70.81 C2.33 72.48 2.61 74.22 2.61 76.04 C2.61 78.93 1.75 81.93 0.02 85.04 L1.41 85.04 C2.35 83.8 3.12 82.36
						 3.74 80.72 C4.35 79.09 4.66 77.51 4.66 75.98 Z" class="st1"/>
		</g>
		<g id="shape54-105" v:mID="54" v:groupContext="shape" transform="translate(192.348,153.841) scale(1,-1)">
			<title>path118</title>
			<path d="M4.19 85.04 C3.45 83.63 2.92 82.48 2.6 81.59 C2.1 80.09 1.84 78.53 1.84 76.9 C1.84 74.3 2.62 71.6 4.18 68.8
						 L2.93 68.8 C2.08 69.94 1.38 71.23 0.81 72.67 C0.27 74.12 0 75.54 0 76.95 C0 78.88 0.49 80.78 1.47 82.65
						 C1.99 83.65 2.48 84.44 2.94 85.04 L4.19 85.04 Z" class="st1"/>
		</g>
		<g id="shape55-107" v:mID="55" v:groupContext="shape" transform="translate(319.328,153.841) scale(1,-1)">
			<title>path120</title>
			<path d="M4.19 76.89 C4.19 74.97 3.7 73.07 2.72 71.19 C2.24 70.26 1.75 69.47 1.25 68.8 L0 68.8 C0.74 70.2 1.27 71.34
						 1.59 72.23 C2.1 73.73 2.35 75.3 2.35 76.94 C2.35 79.54 1.57 82.24 0.02 85.04 L1.27 85.04 C2.11 83.92 2.81
						 82.63 3.37 81.15 C3.92 79.68 4.19 78.26 4.19 76.89 Z" class="st1"/>
		</g>
		<g id="shape56-109" v:mID="56" v:groupContext="shape" transform="translate(224.064,89.3698) scale(1,-1)">
			<title>path122</title>
			<path d="M4.34 80.73 L4.34 82.5 L8.65 82.5 L8.65 80.73 L10.34 80.71 L10.34 82.5 L12.78 82.5 L12.78 83.79 L10.34 83.79
						 L10.34 85.04 L8.65 85.04 L8.65 83.79 L4.34 83.79 L4.34 85.04 L2.65 85.04 L2.65 83.79 L0 83.79 L0 82.5 L2.65
						 82.5 L2.65 80.71 L4.34 80.73 Z" class="st1"/>
		</g>
		<g id="shape57-111" v:mID="57" v:groupContext="shape" transform="translate(66.6531,133.256) scale(1,-1)">
			<title>path124</title>
			<path d="M1.71 85.04 L1.71 76.93 C1.71 74.69 2.39 72.62 5.03 72.62 C7.67 72.62 8.34 74.69 8.34 76.93 L8.34 85.04 L10.06
						 85.04 L10.06 76.35 C10.06 73.33 8.18 71.01 5.03 71.01 C1.88 71.01 0 73.33 0 76.35 L0 85.04 L1.71 85.04 Z"
					class="st1"/>
		</g>
		<g id="shape58-113" v:mID="58" v:groupContext="shape" transform="translate(79.3508,132.6) scale(1,-1)">
			<title>path126</title>
			<path d="M0 85.04 L10.31 74.24 L10.31 84.38 L12.02 84.38 L12.02 70.08 L1.71 80.89 L1.71 70.65 L0 70.65 L0 85.04 Z"
					class="st1"/>
		</g>
		<g id="shape59-115" v:mID="59" v:groupContext="shape" transform="translate(94.7059,133.256) scale(1,-1)">
			<title>path128</title>
			<rect x="0" y="71.3045" width="1.7129" height="13.7355" class="st1"/>
		</g>
		<g id="shape60-117" v:mID="60" v:groupContext="shape" transform="translate(97.7297,133.256) scale(1,-1)">
			<title>path130</title>
			<path d="M5.98 74.88 L10.06 85.04 L11.93 85.04 L5.98 70.58 L0 85.04 L1.88 85.04 L5.98 74.88 Z" class="st1"/>
		</g>
		<g id="shape61-119" v:mID="61" v:groupContext="shape" transform="translate(111.01,133.256) scale(1,-1)">
			<title>path132</title>
			<path d="M0 85.04 L7.38 85.04 L7.38 83.47 L1.71 83.47 L1.71 79.63 L7.21 79.63 L7.21 78.06 L1.71 78.06 L1.71 72.87 L7.38
						 72.87 L7.38 71.3 L0 71.3 L0 85.04 Z" class="st1"/>
		</g>
		<g id="shape62-121" v:mID="62" v:groupContext="shape" transform="translate(120.683,133.256) scale(1,-1)">
			<title>path134</title>
			<path d="M1.71 78.54 L2.26 78.54 C4.01 78.54 5.9 78.86 5.9 81.05 C5.9 83.2 3.86 83.51 2.17 83.51 L1.71 83.51 L1.71 78.54
						 ZM8.54 71.3 L6.47 71.3 L2.42 77.12 L1.71 77.12 L1.71 71.3 L0 71.3 L0 85.04 L2.08 85.04 C3.3 85.04 4.61 85.02
						 5.7 84.4 C6.85 83.73 7.5 82.43 7.5 81.12 C7.5 79.16 6.19 77.52 4.21 77.28 L8.54 71.3 Z" class="st1"/>
		</g>
		<g id="shape63-123" v:mID="63" v:groupContext="shape" transform="translate(130.282,132.965) scale(1,-1)">
			<title>path136</title>
			<path d="M6.83 82.14 C6.32 83 5.67 83.44 4.63 83.44 C3.53 83.44 2.33 82.69 2.33 81.49 C2.33 80.41 3.39 79.85 4.25 79.52
						 L5.23 79.14 C7.18 78.37 8.63 77.3 8.63 75 C8.63 72.51 6.7 70.72 4.25 70.72 C2.02 70.72 0.29 72.36 0 74.57
						 L1.73 74.93 C1.71 73.42 2.91 72.33 4.39 72.33 C5.87 72.33 6.92 73.56 6.92 75 C6.92 76.48 5.74 77.12 4.55
						 77.61 L3.61 78.01 C2.04 78.68 0.62 79.58 0.62 81.49 C0.62 83.71 2.59 85.04 4.66 85.04 C6.19 85.04 7.45 84.29
						 8.2 82.96 L6.83 82.14 Z" class="st1"/>
		</g>
		<g id="shape64-125" v:mID="64" v:groupContext="shape" transform="translate(141.176,133.256) scale(1,-1)">
			<title>path138</title>
			<rect x="0" y="71.3045" width="1.713" height="13.7355" class="st1"/>
		</g>
		<g id="shape65-127" v:mID="65" v:groupContext="shape" transform="translate(144.746,133.256) scale(1,-1)">
			<title>path140</title>
			<path d="M4.97 71.3 L3.26 71.3 L3.26 83.47 L0 83.47 L0 85.04 L8.23 85.04 L8.23 83.47 L4.97 83.47 L4.97 71.3 Z"
					class="st1"/>
		</g>
		<g id="shape66-129" v:mID="66" v:groupContext="shape" transform="translate(153.599,133.256) scale(1,-1)">
			<title>path142</title>
			<path d="M0 85.04 L1.97 85.04 L5.34 79.17 L8.71 85.04 L10.68 85.04 L6.19 77.28 L6.19 71.3 L4.48 71.3 L4.48 77.28 L0 85.04
						 Z" class="st1"/>
		</g>
		<g id="shape67-131" v:mID="67" v:groupContext="shape" transform="translate(170.454,132.965) scale(1,-1)">
			<title>path144</title>
			<path d="M12.68 77.88 C12.68 80.91 10.42 83.44 7.2 83.44 C3.97 83.44 1.71 80.91 1.71 77.88 C1.71 74.75 4.23 72.33 7.2
						 72.33 C10.17 72.33 12.68 74.75 12.68 77.88 ZM14.39 77.88 C14.39 73.8 11.17 70.72 7.2 70.72 C3.22 70.72 0
						 73.8 0 77.88 C0 81.82 3.26 85.04 7.2 85.04 C11.13 85.04 14.39 81.82 14.39 77.88 Z" class="st1"/>
		</g>
		<g id="shape68-133" v:mID="68" v:groupContext="shape" transform="translate(186.922,133.256) scale(1,-1)">
			<title>path146</title>
			<path d="M1.71 83.47 L1.71 79.61 L6.48 79.61 L6.48 78.05 L1.71 78.05 L1.71 71.3 L0 71.3 L0 85.04 L6.65 85.04 L6.65 83.47
						 L1.71 83.47 Z" class="st1"/>
		</g>
		<g id="shape69-135" v:mID="69" v:groupContext="shape" transform="translate(201.288,132.965) scale(1,-1)">
			<title>path148</title>
			<path d="M6.83 82.14 C6.32 83 5.67 83.44 4.63 83.44 C3.53 83.44 2.33 82.69 2.33 81.49 C2.33 80.41 3.39 79.85 4.24 79.52
						 L5.23 79.14 C7.18 78.37 8.64 77.3 8.64 75 C8.64 72.51 6.7 70.72 4.24 70.72 C2.02 70.72 0.29 72.36 0 74.57
						 L1.73 74.93 C1.71 73.42 2.91 72.33 4.39 72.33 C5.87 72.33 6.92 73.56 6.92 75 C6.92 76.48 5.74 77.12 4.55
						 77.61 L3.61 78.01 C2.04 78.68 0.62 79.58 0.62 81.49 C0.62 83.71 2.59 85.04 4.66 85.04 C6.19 85.04 7.45 84.29
						 8.2 82.96 L6.83 82.14 Z" class="st1"/>
		</g>
		<g id="shape70-137" v:mID="70" v:groupContext="shape" transform="translate(211.6,132.965) scale(1,-1)">
			<title>path150</title>
			<path d="M10.76 82.13 C9.78 83 8.43 83.47 7.14 83.47 C4.06 83.47 1.71 80.91 1.71 77.86 C1.71 74.86 4.04 72.29 7.1 72.29
						 C8.45 72.29 9.74 72.8 10.76 73.71 L10.76 71.69 C9.71 71.07 8.36 70.72 7.16 70.72 C3.24 70.72 0 73.84 0 77.81
						 C0 81.87 3.26 85.04 7.3 85.04 C8.51 85.04 9.73 84.75 10.76 84.11 L10.76 82.13 Z" class="st1"/>
		</g>
		<g id="shape71-139" v:mID="71" v:groupContext="shape" transform="translate(225.17,133.256) scale(1,-1)">
			<title>path152</title>
			<rect x="0" y="71.3045" width="1.713" height="13.7355" class="st1"/>
		</g>
		<g id="shape72-141" v:mID="72" v:groupContext="shape" transform="translate(230.27,133.256) scale(1,-1)">
			<title>path154</title>
			<path d="M0 85.04 L7.38 85.04 L7.38 83.47 L1.71 83.47 L1.71 79.63 L7.21 79.63 L7.21 78.06 L1.71 78.06 L1.71 72.87 L7.38
						 72.87 L7.38 71.3 L0 71.3 L0 85.04 Z" class="st1"/>
		</g>
		<g id="shape73-143" v:mID="73" v:groupContext="shape" transform="translate(240.417,132.6) scale(1,-1)">
			<title>path156</title>
			<path d="M0 85.04 L10.31 74.24 L10.31 84.38 L12.02 84.38 L12.02 70.08 L1.71 80.89 L1.71 70.65 L0 70.65 L0 85.04 Z"
					class="st1"/>
		</g>
		<g id="shape74-145" v:mID="74" v:groupContext="shape" transform="translate(254.426,132.965) scale(1,-1)">
			<title>path158</title>
			<path d="M10.76 82.13 C9.78 83 8.43 83.47 7.14 83.47 C4.06 83.47 1.71 80.91 1.71 77.86 C1.71 74.86 4.04 72.29 7.1 72.29
						 C8.45 72.29 9.74 72.8 10.76 73.71 L10.76 71.69 C9.71 71.07 8.36 70.72 7.16 70.72 C3.24 70.72 0 73.84 0 77.81
						 C0 81.87 3.26 85.04 7.3 85.04 C8.51 85.04 9.73 84.75 10.76 84.11 L10.76 82.13 Z" class="st1"/>
		</g>
		<g id="shape75-147" v:mID="75" v:groupContext="shape" transform="translate(267.667,133.256) scale(1,-1)">
			<title>path160</title>
			<path d="M0 85.04 L7.38 85.04 L7.38 83.47 L1.71 83.47 L1.71 79.63 L7.22 79.63 L7.22 78.06 L1.71 78.06 L1.71 72.87 L7.38
						 72.87 L7.38 71.3 L0 71.3 L0 85.04 Z" class="st1"/>
		</g>
		<g id="shape76-149" v:mID="76" v:groupContext="shape" transform="translate(283.01,132.725) scale(1,-1)">
			<title>path162</title>
			<path d="M6.56 81.29 L4.12 75.73 L9 75.73 L6.56 81.29 ZM3.41 74.16 L1.84 70.72 L0 70.72 L6.56 85.04 L13.12 70.72 L11.28
						 70.72 L9.71 74.16 L3.41 74.16 Z" class="st1"/>
		</g>
		<g id="shape77-151" v:mID="77" v:groupContext="shape" transform="translate(297.674,132.652) scale(1,-1)">
			<title>path164</title>
			<path d="M0 85.04 L10.31 74.24 L10.31 84.38 L12.02 84.38 L12.02 70.08 L1.71 80.89 L1.71 70.65 L0 70.65 L0 85.04 Z"
					class="st1"/>
		</g>
		<g id="shape78-153" v:mID="78" v:groupContext="shape" transform="translate(312.301,133.308) scale(1,-1)">
			<title>path166</title>
			<path d="M1.71 72.87 L2.31 72.87 C5.81 72.87 8.84 74.18 8.84 78.17 C8.84 82.18 5.81 83.47 2.31 83.47 L1.71 83.47 L1.71
						 72.87 ZM0 85.04 L2.84 85.04 C7.05 85.04 10.55 82.82 10.55 78.24 C10.55 73.56 7.12 71.3 2.79 71.3 L0 71.3
						 L0 85.04 Z" class="st1"/>
		</g>
	</g>
</svg>
